<mxfile host="app.diagrams.net" modified="2022-04-15T02:13:26.914Z" agent="5.0 (Macintosh; Intel Mac OS X 10_15_7) AppleWebKit/537.36 (KHTML, like Gecko) Chrome/100.0.4896.75 Safari/537.36" etag="eA7QnNldSSB_DrtWpPn_" version="17.4.2" type="github">
  <diagram id="3228e29e-7158-1315-38df-8450db1d8a1d" name="Page-1">
    <mxGraphModel dx="1553" dy="848" grid="0" gridSize="10" guides="1" tooltips="1" connect="1" arrows="1" fold="1" page="1" pageScale="1" pageWidth="1320" pageHeight="300" background="#EFF1F3" math="0" shadow="0">
      <root>
        <mxCell id="0" />
        <mxCell id="1" parent="0" />
        <mxCell id="OGBjxk_xHfaE1EplLFuK-23" value="1" style="rounded=0;whiteSpace=wrap;html=1;fillColor=#9AC7BF;gradientColor=none;fontSize=18;" parent="1" vertex="1">
          <mxGeometry x="21" y="990" width="120" height="60" as="geometry" />
        </mxCell>
        <mxCell id="OGBjxk_xHfaE1EplLFuK-24" value="小白" style="rounded=0;whiteSpace=wrap;html=1;fillColor=#9AC7BF;gradientColor=none;fontSize=18;" parent="1" vertex="1">
          <mxGeometry x="141" y="990" width="120" height="60" as="geometry" />
        </mxCell>
        <mxCell id="OGBjxk_xHfaE1EplLFuK-25" value="&lt;span style=&quot;font-size: 18px&quot;&gt;1&lt;/span&gt;" style="rounded=0;whiteSpace=wrap;html=1;fillColor=#9AC7BF;gradientColor=none;fontSize=18;" parent="1" vertex="1">
          <mxGeometry x="261" y="990" width="120" height="60" as="geometry" />
        </mxCell>
        <mxCell id="OGBjxk_xHfaE1EplLFuK-26" value="2" style="rounded=0;whiteSpace=wrap;html=1;fillColor=#9AC7BF;gradientColor=none;fontSize=18;" parent="1" vertex="1">
          <mxGeometry x="21" y="1050" width="120" height="60" as="geometry" />
        </mxCell>
        <mxCell id="OGBjxk_xHfaE1EplLFuK-27" value="小黑" style="rounded=0;whiteSpace=wrap;html=1;fillColor=#9AC7BF;gradientColor=none;fontSize=18;" parent="1" vertex="1">
          <mxGeometry x="141" y="1050" width="120" height="60" as="geometry" />
        </mxCell>
        <mxCell id="OGBjxk_xHfaE1EplLFuK-28" value="&lt;span style=&quot;font-size: 18px&quot;&gt;3&lt;/span&gt;" style="rounded=0;whiteSpace=wrap;html=1;fillColor=#F19C99;gradientColor=none;fontSize=18;" parent="1" vertex="1">
          <mxGeometry x="261" y="1050" width="120" height="60" as="geometry" />
        </mxCell>
        <mxCell id="OGBjxk_xHfaE1EplLFuK-29" value="id" style="rounded=0;whiteSpace=wrap;html=1;fillColor=#4A919B;gradientColor=none;fontSize=18;" parent="1" vertex="1">
          <mxGeometry x="21" y="930" width="120" height="60" as="geometry" />
        </mxCell>
        <mxCell id="OGBjxk_xHfaE1EplLFuK-30" value="name" style="rounded=0;whiteSpace=wrap;html=1;fillColor=#4A919B;gradientColor=none;fontSize=18;" parent="1" vertex="1">
          <mxGeometry x="141" y="930" width="120" height="60" as="geometry" />
        </mxCell>
        <mxCell id="OGBjxk_xHfaE1EplLFuK-31" value="&lt;span style=&quot;font-size: 18px&quot;&gt;age&lt;/span&gt;" style="rounded=0;whiteSpace=wrap;html=1;fillColor=#4A919B;gradientColor=none;fontSize=18;" parent="1" vertex="1">
          <mxGeometry x="261" y="930" width="120" height="60" as="geometry" />
        </mxCell>
        <mxCell id="GKvqfsDIL1xfIGr8kIaB-1" value="3" style="rounded=0;whiteSpace=wrap;html=1;fillColor=#9AC7BF;gradientColor=none;fontSize=18;" parent="1" vertex="1">
          <mxGeometry x="21" y="1110" width="120" height="60" as="geometry" />
        </mxCell>
        <mxCell id="GKvqfsDIL1xfIGr8kIaB-2" value="小红" style="rounded=0;whiteSpace=wrap;html=1;fillColor=#9AC7BF;gradientColor=none;fontSize=18;" parent="1" vertex="1">
          <mxGeometry x="141" y="1110" width="120" height="60" as="geometry" />
        </mxCell>
        <mxCell id="GKvqfsDIL1xfIGr8kIaB-3" value="&lt;span style=&quot;font-size: 18px&quot;&gt;3&lt;/span&gt;" style="rounded=0;whiteSpace=wrap;html=1;fillColor=#9AC7BF;gradientColor=none;fontSize=18;" parent="1" vertex="1">
          <mxGeometry x="261" y="1110" width="120" height="60" as="geometry" />
        </mxCell>
        <mxCell id="WoD-NqMeUlQSkAmCIDn--1" value="roll_pointer" style="rounded=0;whiteSpace=wrap;html=1;fillColor=#4A919B;gradientColor=none;fontSize=18;" parent="1" vertex="1">
          <mxGeometry x="501" y="930" width="120" height="60" as="geometry" />
        </mxCell>
        <mxCell id="WoD-NqMeUlQSkAmCIDn--2" value="trx_id" style="rounded=0;whiteSpace=wrap;html=1;fillColor=#4A919B;gradientColor=none;fontSize=18;" parent="1" vertex="1">
          <mxGeometry x="381" y="930" width="120" height="60" as="geometry" />
        </mxCell>
        <mxCell id="WoD-NqMeUlQSkAmCIDn--3" value="1" style="rounded=0;whiteSpace=wrap;html=1;fillColor=#9AC7BF;gradientColor=none;fontSize=18;" parent="1" vertex="1">
          <mxGeometry x="381" y="990" width="120" height="60" as="geometry" />
        </mxCell>
        <mxCell id="WoD-NqMeUlQSkAmCIDn--4" value="null" style="rounded=0;whiteSpace=wrap;html=1;fillColor=#9AC7BF;gradientColor=none;fontSize=18;" parent="1" vertex="1">
          <mxGeometry x="501" y="990" width="120" height="60" as="geometry" />
        </mxCell>
        <mxCell id="WoD-NqMeUlQSkAmCIDn--5" value="3" style="rounded=0;whiteSpace=wrap;html=1;fillColor=#F19C99;gradientColor=none;fontSize=18;" parent="1" vertex="1">
          <mxGeometry x="381" y="1050" width="120" height="60" as="geometry" />
        </mxCell>
        <mxCell id="pi2dIFxeebVMgKeU0ETn-18" style="edgeStyle=orthogonalEdgeStyle;rounded=0;orthogonalLoop=1;jettySize=auto;html=1;exitX=1;exitY=0.5;exitDx=0;exitDy=0;entryX=0;entryY=0.5;entryDx=0;entryDy=0;fontSize=18;strokeWidth=3;" parent="1" source="WoD-NqMeUlQSkAmCIDn--6" target="pi2dIFxeebVMgKeU0ETn-13" edge="1">
          <mxGeometry relative="1" as="geometry" />
        </mxCell>
        <mxCell id="WoD-NqMeUlQSkAmCIDn--6" value="undo 地址" style="rounded=0;whiteSpace=wrap;html=1;fillColor=#F19C99;gradientColor=none;fontSize=18;" parent="1" vertex="1">
          <mxGeometry x="501" y="1050" width="120" height="60" as="geometry" />
        </mxCell>
        <mxCell id="WoD-NqMeUlQSkAmCIDn--7" value="1" style="rounded=0;whiteSpace=wrap;html=1;fillColor=#9AC7BF;gradientColor=none;fontSize=18;" parent="1" vertex="1">
          <mxGeometry x="381" y="1110" width="120" height="60" as="geometry" />
        </mxCell>
        <mxCell id="WoD-NqMeUlQSkAmCIDn--8" value="null" style="rounded=0;whiteSpace=wrap;html=1;fillColor=#9AC7BF;gradientColor=none;fontSize=18;" parent="1" vertex="1">
          <mxGeometry x="501" y="1110" width="120" height="60" as="geometry" />
        </mxCell>
        <mxCell id="pi2dIFxeebVMgKeU0ETn-6" value="&lt;font style=&quot;font-size: 18px&quot;&gt;trx_id&lt;/font&gt;" style="text;html=1;strokeColor=none;fillColor=none;align=center;verticalAlign=middle;whiteSpace=wrap;rounded=0;" parent="1" vertex="1">
          <mxGeometry x="1096" y="1006" width="60" height="30" as="geometry" />
        </mxCell>
        <mxCell id="pi2dIFxeebVMgKeU0ETn-9" value="&lt;font style=&quot;font-size: 18px&quot;&gt;id&lt;/font&gt;" style="text;html=1;strokeColor=none;fillColor=none;align=center;verticalAlign=middle;whiteSpace=wrap;rounded=0;" parent="1" vertex="1">
          <mxGeometry x="736" y="1006" width="60" height="30" as="geometry" />
        </mxCell>
        <mxCell id="pi2dIFxeebVMgKeU0ETn-10" value="&lt;font style=&quot;font-size: 18px&quot;&gt;name&lt;/font&gt;" style="text;html=1;strokeColor=none;fillColor=none;align=center;verticalAlign=middle;whiteSpace=wrap;rounded=0;" parent="1" vertex="1">
          <mxGeometry x="856" y="1006" width="60" height="30" as="geometry" />
        </mxCell>
        <mxCell id="pi2dIFxeebVMgKeU0ETn-11" value="&lt;font style=&quot;font-size: 18px&quot;&gt;age&lt;/font&gt;" style="text;html=1;strokeColor=none;fillColor=none;align=center;verticalAlign=middle;whiteSpace=wrap;rounded=0;" parent="1" vertex="1">
          <mxGeometry x="976" y="1006" width="60" height="30" as="geometry" />
        </mxCell>
        <mxCell id="pi2dIFxeebVMgKeU0ETn-12" value="&lt;span style=&quot;font-size: 18px&quot;&gt;roll_pointer&lt;/span&gt;" style="text;html=1;strokeColor=none;fillColor=none;align=center;verticalAlign=middle;whiteSpace=wrap;rounded=0;" parent="1" vertex="1">
          <mxGeometry x="1216" y="1004" width="60" height="30" as="geometry" />
        </mxCell>
        <mxCell id="pi2dIFxeebVMgKeU0ETn-13" value="2" style="rounded=0;whiteSpace=wrap;html=1;fillColor=#FDD276;gradientColor=none;fontSize=18;" parent="1" vertex="1">
          <mxGeometry x="706" y="1050" width="120" height="60" as="geometry" />
        </mxCell>
        <mxCell id="pi2dIFxeebVMgKeU0ETn-14" value="小黑" style="rounded=0;whiteSpace=wrap;html=1;fillColor=#FDD276;gradientColor=none;fontSize=18;" parent="1" vertex="1">
          <mxGeometry x="826" y="1050" width="120" height="60" as="geometry" />
        </mxCell>
        <mxCell id="pi2dIFxeebVMgKeU0ETn-15" value="&lt;span style=&quot;font-size: 18px&quot;&gt;2&lt;/span&gt;" style="rounded=0;whiteSpace=wrap;html=1;fillColor=#FDD276;gradientColor=none;fontSize=18;" parent="1" vertex="1">
          <mxGeometry x="946" y="1050" width="120" height="60" as="geometry" />
        </mxCell>
        <mxCell id="pi2dIFxeebVMgKeU0ETn-16" value="1" style="rounded=0;whiteSpace=wrap;html=1;fillColor=#FDD276;gradientColor=none;fontSize=18;" parent="1" vertex="1">
          <mxGeometry x="1066" y="1050" width="120" height="60" as="geometry" />
        </mxCell>
        <mxCell id="pi2dIFxeebVMgKeU0ETn-17" value="null" style="rounded=0;whiteSpace=wrap;html=1;fillColor=#FDD276;gradientColor=none;fontSize=18;" parent="1" vertex="1">
          <mxGeometry x="1186" y="1050" width="120" height="60" as="geometry" />
        </mxCell>
      </root>
    </mxGraphModel>
  </diagram>
</mxfile>
